<?xml version="1.0" encoding="UTF-8" standalone="no"?>
<!DOCTYPE svg PUBLIC "-//W3C//DTD SVG 1.1//EN" "http://www.w3.org/Graphics/SVG/1.1/DTD/svg11.dtd">
<svg width="100%" height="100%" viewBox="0 0 500 500" version="1.1" xmlns="http://www.w3.org/2000/svg" xmlns:xlink="http://www.w3.org/1999/xlink" xml:space="preserve" xmlns:serif="http://www.serif.com/" style="fill-rule:evenodd;clip-rule:evenodd;stroke-linecap:round;">
    <g transform="matrix(10.6009,0,0,10.6009,171.361,57.3455)">
        <g id="cloudy-day-1">
            <g>
                <g transform="matrix(1,0,0,1,0,16)">
                    <g>
                        <g transform="matrix(1,0,0,1,0,9)">
                            <path d="M0,0L0,3" style="fill:none;fill-rule:nonzero;stroke:rgb(255,165,0);stroke-width:2px;"/>
                        </g>
                        <g transform="matrix(0.707107,0.707107,-0.707107,0.707107,-6.36396,6.36396)">
                            <path d="M0,0L0,3" style="fill:none;fill-rule:nonzero;stroke:rgb(255,165,0);stroke-width:2px;"/>
                        </g>
                        <g transform="matrix(-3.82857e-16,1,-1,-3.82857e-16,-9,-3.44571e-15)">
                            <path d="M0,0L0,3" style="fill:none;fill-rule:nonzero;stroke:rgb(255,165,0);stroke-width:2px;"/>
                        </g>
                        <g transform="matrix(-0.707107,0.707107,-0.707107,-0.707107,-6.36396,-6.36396)">
                            <path d="M0,0L0,3" style="fill:none;fill-rule:nonzero;stroke:rgb(255,165,0);stroke-width:2px;"/>
                        </g>
                        <g transform="matrix(-1,-7.65714e-16,7.65714e-16,-1,6.89142e-15,-9)">
                            <path d="M0,0L0,3" style="fill:none;fill-rule:nonzero;stroke:rgb(255,165,0);stroke-width:2px;"/>
                        </g>
                        <g transform="matrix(-0.707107,-0.707107,0.707107,-0.707107,6.36396,-6.36396)">
                            <path d="M0,0L0,3" style="fill:none;fill-rule:nonzero;stroke:rgb(255,165,0);stroke-width:2px;"/>
                        </g>
                        <g transform="matrix(7.04481e-16,-1,1,7.04481e-16,9,6.34033e-15)">
                            <path d="M0,0L0,3" style="fill:none;fill-rule:nonzero;stroke:rgb(255,165,0);stroke-width:2px;"/>
                        </g>
                        <g transform="matrix(0.707107,-0.707107,0.707107,0.707107,6.36396,6.36396)">
                            <path d="M0,0L0,3" style="fill:none;fill-rule:nonzero;stroke:rgb(255,165,0);stroke-width:2px;"/>
                        </g>
                    </g>
                    <circle cx="0" cy="0" r="5" style="fill:rgb(255,165,0);stroke:rgb(255,165,0);stroke-width:2px;stroke-linecap:butt;"/>
                </g>
                <g transform="matrix(1,0,0,1,-20,-11)">
                    <path d="M47.7,35.4C47.7,30.8 44,27.2 39.5,27.2C38.5,27.2 37.6,27.4 36.7,27.7C36.4,24.3 33.6,21.5 30.1,21.5C26.4,21.5 23.4,24.5 23.4,28.2C23.4,29 23.6,29.8 23.8,30.5C23.5,30.4 23.1,30.4 22.8,30.4C19.1,30.4 16.1,33.4 16.1,37.1C16.1,40.7 19,43.7 22.6,43.8L39.8,43.8C44.2,43.3 47.7,39.8 47.7,35.4Z" style="fill:rgb(198,222,255);fill-rule:nonzero;stroke:white;stroke-width:1.2px;stroke-linecap:butt;stroke-linejoin:round;"/>
                </g>
            </g>
        </g>
    </g>
</svg>
