<?xml version="1.0" encoding="UTF-8" standalone="no"?>
<!DOCTYPE svg PUBLIC "-//W3C//DTD SVG 1.1//EN" "http://www.w3.org/Graphics/SVG/1.1/DTD/svg11.dtd">
<svg width="100%" height="100%" viewBox="0 0 500 500" version="1.1" xmlns="http://www.w3.org/2000/svg" xmlns:xlink="http://www.w3.org/1999/xlink" xml:space="preserve" xmlns:serif="http://www.serif.com/" style="fill-rule:evenodd;clip-rule:evenodd;stroke-linecap:round;">
    <g transform="matrix(12.0405,0,0,12.0405,250,250)">
        <g id="Layer5">
            <g transform="matrix(1,0,0,1,-32,-32)">
                <g transform="matrix(1,0,0,1,32,32)">
                    <g id="day">
                        <g>
                            <g>
                                <g transform="matrix(1,0,0,1,0,9)">
                                    <path d="M0,0L0,3" style="fill:none;fill-rule:nonzero;stroke:rgb(255,165,0);stroke-width:2px;"/>
                                </g>
                                <g transform="matrix(0.707107,0.707107,-0.707107,0.707107,-6.36396,6.36396)">
                                    <path d="M0,0L0,3" style="fill:none;fill-rule:nonzero;stroke:rgb(255,165,0);stroke-width:2px;"/>
                                </g>
                                <g transform="matrix(-3.82857e-16,1,-1,-3.82857e-16,-9,-3.44571e-15)">
                                    <path d="M0,0L0,3" style="fill:none;fill-rule:nonzero;stroke:rgb(255,165,0);stroke-width:2px;"/>
                                </g>
                                <g transform="matrix(-0.707107,0.707107,-0.707107,-0.707107,-6.36396,-6.36396)">
                                    <path d="M0,0L0,3" style="fill:none;fill-rule:nonzero;stroke:rgb(255,165,0);stroke-width:2px;"/>
                                </g>
                                <g transform="matrix(-1,-7.65714e-16,7.65714e-16,-1,6.89142e-15,-9)">
                                    <path d="M0,0L0,3" style="fill:none;fill-rule:nonzero;stroke:rgb(255,165,0);stroke-width:2px;"/>
                                </g>
                                <g transform="matrix(-0.707107,-0.707107,0.707107,-0.707107,6.36396,-6.36396)">
                                    <path d="M0,0L0,3" style="fill:none;fill-rule:nonzero;stroke:rgb(255,165,0);stroke-width:2px;"/>
                                </g>
                                <g transform="matrix(7.04481e-16,-1,1,7.04481e-16,9,6.34033e-15)">
                                    <path d="M0,0L0,3" style="fill:none;fill-rule:nonzero;stroke:rgb(255,165,0);stroke-width:2px;"/>
                                </g>
                                <g transform="matrix(0.707107,-0.707107,0.707107,0.707107,6.36396,6.36396)">
                                    <path d="M0,0L0,3" style="fill:none;fill-rule:nonzero;stroke:rgb(255,165,0);stroke-width:2px;"/>
                                </g>
                            </g>
                            <circle cx="0" cy="0" r="5" style="fill:rgb(255,165,0);stroke:rgb(255,165,0);stroke-width:2px;stroke-linecap:butt;"/>
                        </g>
                    </g>
                </g>
            </g>
        </g>
    </g>
</svg>
