<?xml version="1.0" encoding="UTF-8" standalone="no"?>
<!DOCTYPE svg PUBLIC "-//W3C//DTD SVG 1.1//EN" "http://www.w3.org/Graphics/SVG/1.1/DTD/svg11.dtd">
<svg width="100%" height="100%" viewBox="0 0 500 500" version="1.1" xmlns="http://www.w3.org/2000/svg" xmlns:xlink="http://www.w3.org/1999/xlink" xml:space="preserve" xmlns:serif="http://www.serif.com/" style="fill-rule:evenodd;clip-rule:evenodd;stroke-linejoin:round;">
    <g transform="matrix(9.34641,0,0,9.34641,210.431,216.189)">
        <g id="Layer4">
            <g transform="matrix(1,0,0,1,-32,-32)">
                <g transform="matrix(1,0,0,1,20,10)">
                    <g id="thunder">
                        <g>
                            <g transform="matrix(1,0,0,1,-10,-6)">
                                <path d="M47.7,35.4C47.7,30.8 44,27.2 39.5,27.2C38.5,27.2 37.6,27.4 36.7,27.7C36.4,24.3 33.6,21.5 30.1,21.5C26.4,21.5 23.4,24.5 23.4,28.2C23.4,29 23.6,29.8 23.8,30.5C23.5,30.4 23.1,30.4 22.8,30.4C19.1,30.4 16.1,33.4 16.1,37.1C16.1,40.7 19,43.7 22.6,43.8L39.8,43.8C44.2,43.3 47.7,39.8 47.7,35.4Z" style="fill:rgb(145,192,248);fill-rule:nonzero;stroke:white;stroke-width:1.2px;"/>
                            </g>
                            <g transform="matrix(1,0,0,1,-20,-11)">
                                <path d="M47.7,35.4C47.7,30.8 44,27.2 39.5,27.2C38.5,27.2 37.6,27.4 36.7,27.7C36.4,24.3 33.6,21.5 30.1,21.5C26.4,21.5 23.4,24.5 23.4,28.2C23.4,29 23.6,29.8 23.8,30.5C23.5,30.4 23.1,30.4 22.8,30.4C19.1,30.4 16.1,33.4 16.1,37.1C16.1,40.7 19,43.7 22.6,43.8L39.8,43.8C44.2,43.3 47.7,39.8 47.7,35.4Z" style="fill:rgb(87,160,238);fill-rule:nonzero;stroke:white;stroke-width:1.2px;"/>
                            </g>
                            <g transform="matrix(1,0,0,1,-9,28)">
                                <path d="M14.3,-2.9L20.5,-2.9L16.4,4.3L20.3,4.3L11.5,14.6L14.9,6.9L11.1,6.9L14.3,-2.9Z" style="fill:rgb(255,165,0);fill-rule:nonzero;stroke:white;stroke-width:1px;stroke-linejoin:miter;"/>
                            </g>
                        </g>
                    </g>
                </g>
            </g>
        </g>
    </g>
</svg>
